<?xml version="1.0" encoding="iso-8859-1"?>
<!-- Generator: Adobe Illustrator 19.0.0, SVG Export Plug-In . SVG Version: 6.00 Build 0)  -->
<svg version="1.1" id="Capa_1" xmlns="http://www.w3.org/2000/svg" xmlns:xlink="http://www.w3.org/1999/xlink" x="0px" y="0px"
	 viewBox="0 0 496 496" style="enable-background:new 0 0 496 496;" xml:space="preserve">
<rect x="32" y="144" style="fill:#FCD770;" width="56" height="48"/>
<rect x="32" y="144" style="fill:#FFC729;" width="24" height="48"/>
<g>
	<circle style="fill:#798699;" cx="128" cy="384" r="48"/>
	<circle style="fill:#798699;" cx="320" cy="384" r="48"/>
</g>
<g>
	<path style="fill:#ECECEC;" d="M360,112v184c0,4.416-3.584,8-8,8H112c-4.416,0-8-3.584-8-8V112H72v192c0,17.672,14.328,32,32,32
		h256c17.672,0,32-14.328,32-32V112H360z"/>
	<rect x="8" y="112" style="fill:#ECECEC;" width="32" height="112"/>
</g>
<g>
	<polygon style="fill:#FCD770;" points="488,312 392,312 392,80 424,80 488,144 	"/>
	<path style="fill:#FCD770;" d="M249.464,64h-34.936C153.488,64,104,113.488,104,174.536c0,21.824,6.456,43.152,18.56,61.312
		L168,304h128l45.44-68.152c12.104-18.16,18.56-39.488,18.56-61.312C360,113.488,310.512,64,249.464,64z"/>
</g>
<path style="fill:#FFC729;" d="M120.2,232h223.6c4.608-7.568,8.304-15.616,10.968-24H109.232
	C111.896,216.384,115.592,224.432,120.2,232z"/>
<g>
	<circle style="fill:#AFB8C9;" cx="320" cy="384" r="16"/>
	<circle style="fill:#AFB8C9;" cx="128" cy="384" r="16"/>
</g>
<path style="fill:#FF8031;" d="M109.232,208H354.76c3.272-10.304,5.04-21.08,5.184-32H104.056
	C104.2,186.92,105.96,197.696,109.232,208z"/>
<path d="M496,140.688L427.312,72H384v32h-32v11.328C331.472,79.92,293.256,56,249.472,56h-34.936
	C170.744,56,132.528,79.928,112,115.328V104H64v32H48v-32H0v128h48v-32h16v104c0,17.608,11.512,32.432,27.352,37.752
	C79.52,352.032,72,367.136,72,384c0,30.88,25.12,56,56,56s56-25.12,56-56c0-15.664-6.48-29.824-16.88-40h113.76
	c-10.4,10.176-16.88,24.336-16.88,40c0,30.88,25.12,56,56,56s56-25.12,56-56c0-15.664-6.48-29.824-16.88-40H360
	c16.36,0,30.416-9.896,36.608-24H496V140.688z M32,216H16v-96h16V216z M48,184v-32h16v32H48z M352,233.928V296h-41.048
	l37.144-55.712C349.48,238.208,350.752,236.08,352,233.928z M214.528,72h34.936c54.328,0,98.8,42.512,102.2,96H144v16h207.512
	c-0.496,5.424-1.44,10.76-2.784,16H328v16h15.184c-2.36,5.328-5.128,10.496-8.408,15.408L291.72,296H172.28l-43.064-64.592
	c-3.272-4.912-6.04-10.08-8.408-15.408H312v-16H115.272c-1.344-5.24-2.28-10.576-2.784-16H128v-16h-15.672
	C115.728,114.512,160.2,72,214.528,72z M112,233.928c1.248,2.144,2.52,4.28,3.904,6.352L153.048,296H112V233.928z M168,384
	c0,22.056-17.944,40-40,40s-40-17.944-40-40s17.944-40,40-40S168,361.944,168,384z M360,384c0,22.056-17.944,40-40,40
	s-40-17.944-40-40s17.944-40,40-40S360,361.944,360,384z M360,328H104c-13.232,0-24-10.768-24-24V120h16v176c0,8.824,7.176,16,16,16
	h240c8.824,0,16-7.176,16-16V120h16v184C384,317.232,373.232,328,360,328z M480,304h-80V104V88h20.688L480,147.312V304z"/>
<rect x="416" y="272" width="48" height="16"/>
<rect x="416" y="240" width="48" height="16"/>
<path d="M320,408c13.232,0,24-10.768,24-24s-10.768-24-24-24s-24,10.768-24,24S306.768,408,320,408z M320,376c4.408,0,8,3.592,8,8
	s-3.592,8-8,8s-8-3.592-8-8S315.592,376,320,376z"/>
<path d="M128,408c13.232,0,24-10.768,24-24s-10.768-24-24-24s-24,10.768-24,24S114.768,408,128,408z M128,376c4.408,0,8,3.592,8,8
	s-3.592,8-8,8s-8-3.592-8-8S123.592,376,128,376z"/>
<g>
</g>
<g>
</g>
<g>
</g>
<g>
</g>
<g>
</g>
<g>
</g>
<g>
</g>
<g>
</g>
<g>
</g>
<g>
</g>
<g>
</g>
<g>
</g>
<g>
</g>
<g>
</g>
<g>
</g>
</svg>
