<svg height="464pt" viewBox="0 -24 464 464" width="464pt" xmlns="http://www.w3.org/2000/svg"><g fill="#f57e00"><path d="m71.3125 124.753906-32-72c-1.355469-2.984375-4.375-4.859375-7.648438-4.753906l-16 .664062.671876 16 10.558593-.449218 24.792969 55.785156h-27.6875v16h27.054688l-24 48h-9.054688v16h14c3.03125 0 5.804688-1.710938 7.160156-4.425781l32-64c1.066406-2.136719 1.121094-4.640625.152344-6.820313zm0 0"/><path d="m109.414062 365.640625 257.503907-51.964844 3.164062 15.675781-257.507812 51.964844zm0 0"/><path d="m96 112h32v32h-32zm0 0"/><path d="m336 112h32v32h-32zm0 0"/><path d="m96 272h272v32h-272zm0 0"/></g><path d="m16 40c8.835938 0 16 7.164062 16 16v144c0 8.835938-7.164062 16-16 16s-16-7.164062-16-16v-144c0-8.835938 7.164062-16 16-16zm0 0" fill="#ffb531"/><path d="m16 168c-8.835938 0-16-7.164062-16-16v48c0 8.835938 7.164062 16 16 16s16-7.164062 16-16v-48c0 8.835938-7.164062 16-16 16zm0 0" fill="#ffa912"/><path d="m288 0h-112l-48 112v64c0 35.347656 28.652344 64 64 64h80c35.347656 0 64-28.652344 64-64v-64zm0 0" fill="#ffb531"/><path d="m288 0h-48l48 112v64c0 35.347656-28.652344 64-64 64h48c35.347656 0 64-28.652344 64-64v-64zm0 0" fill="#ffa912"/><path d="m184.644531 40.757812 5.105469-11.90625 14.703125 6.308594-5.101563 11.902344zm0 0" fill="#ffcb73"/><path d="m165.742188 84.847656 13.722656-32 14.707031 6.304688-13.722656 32zm0 0" fill="#ffcb73"/><path d="m64 80h32v280h-32zm0 0" fill="#ffb531"/><path d="m368 80h32v280h-32zm0 0" fill="#ffb531"/><path d="m464 240h-64v-160h40l24 32zm0 0" fill="#ffb531"/><path d="m136 360c0 30.929688-25.070312 56-56 56s-56-25.070312-56-56 25.070312-56 56-56 56 25.070312 56 56zm0 0" fill="#3d4d63"/><path d="m104 360c0 13.253906-10.746094 24-24 24s-24-10.746094-24-24 10.746094-24 24-24 24 10.746094 24 24zm0 0" fill="#e0e0de"/><path d="m88 360c0 4.417969-3.582031 8-8 8s-8-3.582031-8-8 3.582031-8 8-8 8 3.582031 8 8zm0 0" fill="#ccccca"/><path d="m440 360c0 30.929688-25.070312 56-56 56s-56-25.070312-56-56 25.070312-56 56-56 56 25.070312 56 56zm0 0" fill="#3d4d63"/><path d="m408 360c0 13.253906-10.746094 24-24 24s-24-10.746094-24-24 10.746094-24 24-24 24 10.746094 24 24zm0 0" fill="#e0e0de"/><path d="m128 112h208v32h-208zm0 0" fill="#ffcb73"/><path d="m400 240h32v32h-32zm0 0" fill="#f57e00"/><path d="m424 120h16v16h-16zm0 0" fill="#348fd9"/><path d="m424 152h16v16h-16zm0 0" fill="#348fd9"/><path d="m400 80h16v160h-16zm0 0" fill="#ffa912"/><path d="m392 360c0 4.417969-3.582031 8-8 8s-8-3.582031-8-8 3.582031-8 8-8 8 3.582031 8 8zm0 0" fill="#ccccca"/><path d="m128 144h208v16h-208zm0 0" fill="#ffa912"/></svg>